<svg id="eQerg3VF8HW1" xmlns="http://www.w3.org/2000/svg" xmlns:xlink="http://www.w3.org/1999/xlink" viewBox="0 0 250 200" shape-rendering="geometricPrecision" text-rendering="geometricPrecision"><g transform="translate(-10.820375-54.679286)"><rect width="30" height="30" rx="7" ry="7" transform="matrix(1.75294 0 0 1.47059 66.3529 69.5295)" stroke-width="0"/><rect width="30" height="30" rx="7" ry="7" transform="matrix(1.32941 0 0 1.50588 72.7059 75.1765)" fill="#fff" stroke-width="0"/></g><g transform="matrix(-.999997 0.002509-.002509-.999997 174.775155 254.264644)"><rect width="30" height="30" rx="7" ry="7" transform="matrix(1.75294 0 0 1.47059 66.3529 69.5295)" stroke-width="0"/><rect width="30" height="30" rx="7" ry="7" transform="matrix(1.32941 0 0 1.50588 72.7059 75.1765)" fill="#fff" stroke-width="0"/></g><g transform="matrix(.004457-.99999 0.99999 0.004457-62.713753 190.897104)"><rect width="30" height="30" rx="7" ry="7" transform="matrix(1.75294 0 0 1.47059 66.3529 69.5295)" stroke-width="0"/><rect width="30" height="30" rx="7" ry="7" transform="matrix(1.32941 0 0 1.50588 72.7059 75.1765)" fill="#fff" stroke-width="0"/></g><g transform="matrix(-.006646 0.999978-.999978-.006646 312.858155 6.377744)"><rect width="30" height="30" rx="7" ry="7" transform="matrix(1.75294 0 0 1.47059 66.3529 69.5295)" stroke-width="0"/><rect width="30" height="30" rx="7" ry="7" transform="matrix(1.32941 0 0 1.50588 72.7059 75.1765)" fill="#fff" stroke-width="0"/></g><g transform="matrix(-.999997 0.002509-.002509-.999997 259.481155 254.380644)"><rect width="30" height="30" rx="7" ry="7" transform="matrix(1.75294 0 0 1.47059 66.3529 69.5295)" stroke-width="0"/><rect width="30" height="30" rx="7" ry="7" transform="matrix(1.32941 0 0 1.50588 72.7059 75.1765)" fill="#fff" stroke-width="0"/></g><g transform="translate(73.885555-54.679286)"><rect width="30" height="30" rx="7" ry="7" transform="matrix(1.75294 0 0 1.47059 66.3529 69.5295)" stroke-width="0"/><rect width="30" height="30" rx="7" ry="7" transform="matrix(1.32941 0 0 1.50588 72.7059 75.1765)" fill="#fff" stroke-width="0"/></g><g transform="matrix(.714173 0 0 1 17.536732-51.855885)"><rect width="196.941" height="79.7647" rx="7" ry="7" transform="matrix(1.16487 0 0 1.38053 35.2945 94.9413)" stroke-width="0"/><rect width="196.941" height="79.7647" rx="7" ry="7" transform="matrix(1.11617 0 0 1.24779 40.0902 100.235)" fill="#fff" stroke-width="0"/></g></svg>
